<mxfile host="app.diagrams.net" modified="2021-01-26T11:58:11.610Z" agent="5.0 (Windows NT 10.0; Win64; x64) AppleWebKit/537.36 (KHTML, like Gecko) Chrome/87.0.4280.141 Safari/537.36" etag="NYsrITknmFoTsggqA64c" version="14.2.7" type="github">
  <diagram id="UnWPM5oVaGgAkbn6O5MC" name="Page-1">
    <mxGraphModel dx="1185" dy="635" grid="1" gridSize="10" guides="1" tooltips="1" connect="1" arrows="1" fold="1" page="1" pageScale="1" pageWidth="827" pageHeight="1169" math="0" shadow="0">
      <root>
        <mxCell id="0" />
        <mxCell id="1" parent="0" />
        <mxCell id="5funGXJvd1xN3maJrhfN-1" value="" style="rounded=0;whiteSpace=wrap;html=1;" vertex="1" parent="1">
          <mxGeometry x="289" y="270" width="250" height="400" as="geometry" />
        </mxCell>
        <mxCell id="5funGXJvd1xN3maJrhfN-2" value="" style="rounded=0;whiteSpace=wrap;html=1;fillColor=#f5f5f5;strokeColor=#666666;fontColor=#333333;" vertex="1" parent="1">
          <mxGeometry x="289" y="530" width="49" height="140" as="geometry" />
        </mxCell>
        <mxCell id="5funGXJvd1xN3maJrhfN-3" value="" style="rounded=0;whiteSpace=wrap;html=1;" vertex="1" parent="1">
          <mxGeometry x="420" y="260" width="90" height="10" as="geometry" />
        </mxCell>
        <mxCell id="5funGXJvd1xN3maJrhfN-4" value="" style="rounded=0;whiteSpace=wrap;html=1;fillColor=#f5f5f5;strokeColor=#666666;fontColor=#333333;rotation=-180;" vertex="1" parent="1">
          <mxGeometry x="289" y="270" width="121" height="200" as="geometry" />
        </mxCell>
        <mxCell id="5funGXJvd1xN3maJrhfN-6" value="" style="rounded=0;whiteSpace=wrap;html=1;" vertex="1" parent="1">
          <mxGeometry x="350" y="660" width="90" height="10" as="geometry" />
        </mxCell>
        <mxCell id="5funGXJvd1xN3maJrhfN-7" value="" style="rounded=0;whiteSpace=wrap;html=1;" vertex="1" parent="1">
          <mxGeometry x="340" y="570" width="10" height="90" as="geometry" />
        </mxCell>
        <mxCell id="5funGXJvd1xN3maJrhfN-8" value="" style="rounded=0;whiteSpace=wrap;html=1;fillColor=#f5f5f5;strokeColor=#666666;fontColor=#333333;rotation=-180;" vertex="1" parent="1">
          <mxGeometry x="459" y="270" width="80" height="155" as="geometry" />
        </mxCell>
        <mxCell id="5funGXJvd1xN3maJrhfN-9" value="seng&lt;br&gt;120x200" style="text;html=1;strokeColor=none;fillColor=none;align=center;verticalAlign=middle;whiteSpace=wrap;rounded=0;" vertex="1" parent="1">
          <mxGeometry x="314.25" y="330" width="70.5" height="20" as="geometry" />
        </mxCell>
        <mxCell id="5funGXJvd1xN3maJrhfN-10" value="skrivebord&lt;br&gt;80x150" style="text;html=1;strokeColor=none;fillColor=none;align=center;verticalAlign=middle;whiteSpace=wrap;rounded=0;" vertex="1" parent="1">
          <mxGeometry x="479" y="330" width="40" height="20" as="geometry" />
        </mxCell>
        <mxCell id="5funGXJvd1xN3maJrhfN-11" value="skap&lt;br&gt;140x50" style="text;html=1;strokeColor=none;fillColor=none;align=center;verticalAlign=middle;whiteSpace=wrap;rounded=0;" vertex="1" parent="1">
          <mxGeometry x="293.5" y="585" width="40" height="20" as="geometry" />
        </mxCell>
        <mxCell id="5funGXJvd1xN3maJrhfN-13" value="" style="rounded=0;whiteSpace=wrap;html=1;fillColor=#f5f5f5;strokeColor=#666666;fontColor=#333333;" vertex="1" parent="1">
          <mxGeometry x="289.5" y="640" width="40.5" height="30" as="geometry" />
        </mxCell>
        <mxCell id="5funGXJvd1xN3maJrhfN-14" value="" style="rounded=0;whiteSpace=wrap;html=1;fillColor=#f5f5f5;strokeColor=#666666;fontColor=#333333;" vertex="1" parent="1">
          <mxGeometry x="499" y="450" width="40" height="90" as="geometry" />
        </mxCell>
        <mxCell id="5funGXJvd1xN3maJrhfN-15" value="TV-benk&lt;br&gt;40x90" style="text;html=1;strokeColor=none;fillColor=none;align=center;verticalAlign=middle;whiteSpace=wrap;rounded=0;rotation=-90;" vertex="1" parent="1">
          <mxGeometry x="494" y="485" width="50" height="20" as="geometry" />
        </mxCell>
        <mxCell id="5funGXJvd1xN3maJrhfN-16" value="hylle&lt;br&gt;30x40" style="text;html=1;strokeColor=none;fillColor=none;align=center;verticalAlign=middle;whiteSpace=wrap;rounded=0;" vertex="1" parent="1">
          <mxGeometry x="289" y="645" width="40" height="20" as="geometry" />
        </mxCell>
        <mxCell id="5funGXJvd1xN3maJrhfN-17" value="" style="shape=or;whiteSpace=wrap;html=1;rotation=-180;fillColor=#f5f5f5;strokeColor=#666666;fontColor=#333333;" vertex="1" parent="1">
          <mxGeometry x="409" y="310" width="50" height="60" as="geometry" />
        </mxCell>
        <mxCell id="5funGXJvd1xN3maJrhfN-18" value="stol&lt;br&gt;60x50" style="text;html=1;strokeColor=none;fillColor=none;align=center;verticalAlign=middle;whiteSpace=wrap;rounded=0;" vertex="1" parent="1">
          <mxGeometry x="419" y="330" width="40" height="20" as="geometry" />
        </mxCell>
      </root>
    </mxGraphModel>
  </diagram>
</mxfile>
